#!OML:ASF E:\Style6\Style6.ASF
:FULLY-SPECIFIED
:DEGREES
2422
root 1.17771 14.2939 -1.29993 3.60971 -19.8801 0.140506
lowerback 24.2465 -2.27085 5.27053
upperback 14.3804 -2.17468 0.513374
thorax 2.29783 -0.892514 -1.96329
lowerneck -11.2387 0.686371 3.05272
upperneck 18.2535 1.71905 -7.27543
head 7.5476 0.343122 -2.73389
rclavicle -2.50469e-014 3.10104e-014
rhumerus 19.0459 21.2168 -90.0592
rradius 138.121
rwrist 47.6829
rhand 4.87105 0.0254418
rfingers 7.12502
rthumb 30.247 -27.5168
lclavicle -2.50469e-014 3.10104e-014
lhumerus 21.5077 -21.9978 86.2937
lradius 136.912
lwrist -33.975
lhand 6.89572 36.0146
lfingers 7.12502
lthumb 32.1764 63.185
rfemur -58.5576 -2.39048 18.0818
rtibia 82.5758
rfoot -19.8093 11.5051
rtoes 1.16997
lfemur -50.6838 19.1136 -21.8772
ltibia 86.6564
lfoot -29.1861 11.8781
ltoes -31.3365
2423
root 1.17043 14.2964 -1.29625 3.5578 -19.8393 0.0744656
lowerback 24.2536 -2.24695 5.28126
upperback 14.4044 -2.14317 0.474935
thorax 2.32254 -0.873305 -2.01803
lowerneck -10.9474 0.674261 2.87182
upperneck 17.8478 1.64763 -6.89456
head 7.35477 0.342813 -2.57698
rclavicle -2.74323e-014 1.19271e-014
rhumerus 18.9656 21.4411 -90.0372
rradius 138.119
rwrist 47.7152
rhand 4.59816 -0.39025
rfingers 7.12502
rthumb 29.9866 -27.9799
lclavicle -2.74323e-014 1.19271e-014
lhumerus 21.5255 -22.0309 86.2488
lradius 136.916
lwrist -33.9941
lhand 6.94212 36.0699
lfingers 7.12502
lthumb 32.2206 63.2314
rfemur -58.4164 -2.46066 18.1798
rtibia 82.5502
rfoot -19.6387 11.8518
rtoes 3.20353
lfemur -50.5666 19.1005 -21.7425
ltibia 86.64
lfoot -29.2212 11.8041
ltoes -31.3749
2424
root 1.16247 14.3022 -1.29155 3.50783 -19.7527 0.106945
lowerback 24.1733 -2.22641 5.19894
upperback 14.4285 -2.13811 0.445544
thorax 2.38805 -0.872358 -2.00697
lowerneck -10.8535 0.661533 2.70764
upperneck 17.6849 1.61181 -6.66837
head 7.28055 0.339112 -2.47564
rclavicle -5.96354e-015 2.70347e-014
rhumerus 18.959 21.5917 -90.0117
rradius 138.092
rwrist 47.7601
rhand 4.61343 -0.545742
rfingers 7.12502
rthumb 30.0012 -28.1328
lclavicle -5.96354e-015 2.70347e-014
lhumerus 21.5761 -22.0668 86.1765
lradius 136.938
lwrist -33.9552
lhand 6.98927 36.2207
lfingers 7.12502
lthumb 32.2655 63.3731
rfemur -58.3194 -2.59992 18.1918
rtibia 82.5395
rfoot -19.6393 11.9193
rtoes 3.4377
lfemur -50.4461 19.0054 -21.7225
ltibia 86.59
lfoot -29.2139 11.8375
ltoes -31.437
2425
root 1.154 14.3061 -1.28709 3.47207 -19.6191 0.101386
lowerback 24.1951 -2.22318 5.17907
upperback 14.3769 -2.13121 0.442842
thorax 2.3192 -0.871101 -1.9987
lowerneck -10.7836 0.654177 2.64697
upperneck 17.6683 1.60758 -6.63994
head 7.2619 0.33705 -2.45607
rclavicle -3.97569e-014 1.66979e-014
rhumerus 18.863 21.625 -90.0179
rradius 138.065
rwrist 47.7481
rhand 4.65725 -0.590888
rfingers 7.12502
rthumb 30.043 -28.1704
lclavicle -3.97569e-014 1.66979e-014
lhumerus 21.5264 -22.1561 86.1812
lradius 136.973
lwrist -33.9222
lhand 7.11362 36.2435
lfingers 7.12502
lthumb 32.3838 63.3718
rfemur -58.2179 -2.76435 18.2529
rtibia 82.5478
rfoot -19.8933 11.6241
rtoes 1.61458
lfemur -50.3461 18.8798 -21.6608
ltibia 86.5525
lfoot -29.2413 11.7924
ltoes -31.3095
2426
root 1.14498 14.3057 -1.28381 3.44829 -19.5228 0.0362946
lowerback 24.9554 -2.21722 5.08644
upperback 13.8588 -2.06011 0.537682
thorax 1.37931 -0.869427 -1.83182
lowerneck -10.4476 0.662975 2.55599
upperneck 17.8929 1.65416 -6.67533
head 7.27685 0.351639 -2.45044
rclavicle 3.57812e-014 -1.31198e-014
rhumerus 18.0254 21.7711 -90.1613
rradius 138.124
rwrist 47.7986
rhand 4.5934 -0.618663
rfingers 7.12502
rthumb 29.9821 -28.2092
lclavicle 3.57812e-014 -1.31198e-014
lhumerus 20.742 -22.2419 86.5891
lradius 137.13
lwrist -34.0246
lhand 7.2475 36.2389
lfingers 7.12502
lthumb 32.5112 63.341
rfemur -58.1223 -2.85008 18.3507
rtibia 82.5548
rfoot -19.7853 11.8625
rtoes 3.35028
lfemur -50.2934 18.8181 -21.5338
ltibia 86.5539
lfoot -29.2202 11.8179
ltoes -31.4835
2427
root 1.13558 14.3061 -1.28085 3.40165 -19.4367 0.0722589
lowerback 25.2231 -2.1999 4.92967
upperback 13.6401 -2.03877 0.558073
thorax 1.00905 -0.877147 -1.7158
lowerneck -10.336 0.667724 2.54899
upperneck 18.0232 1.68068 -6.74197
head 7.30101 0.357478 -2.47032
rclavicle -1.45113e-014 1.59028e-014
rhumerus 17.6439 21.8967 -90.2712
rradius 138.175
rwrist 47.9136
rhand 4.49094 -0.709625
rfingers 7.12502
rthumb 29.8843 -28.3178
lclavicle -1.45113e-014 1.59028e-014
lhumerus 20.4049 -22.261 86.7382
lradius 137.198
lwrist -34.0958
lhand 7.18386 36.1772
lfingers 7.12502
lthumb 32.4507 63.2917
rfemur -58.0456 -2.92697 18.334
rtibia 82.5568
rfoot -19.5898 12.2196
rtoes 5.59204
lfemur -50.2258 18.7706 -21.5189
ltibia 86.539
lfoot -29.3198 11.5939
ltoes -30.9508
2428
root 1.12767 14.3101 -1.27742 3.33573 -19.3447 0.0349581
lowerback 25.2734 -2.1905 4.90029
upperback 13.6476 -2.02919 0.561661
thorax 0.994933 -0.87412 -1.69646
lowerneck -10.4734 0.66682 2.58635
upperneck 18.0806 1.68971 -6.81929
head 7.34565 0.354344 -2.50236
rclavicle 1.98785e-016 -3.20043e-014
rhumerus 17.6242 21.9516 -90.2501
rradius 138.205
rwrist 48.0282
rhand 4.33792 -0.722535
rfingers 7.12502
rthumb 29.7383 -28.3569
lclavicle 1.98785e-016 -3.20043e-014
lhumerus 20.4485 -22.3403 86.7029
lradius 137.185
lwrist -34.1592
lhand 7.10334 36.2181
lfingers 7.12502
lthumb 32.3741 63.3483
rfemur -57.889 -3.00055 18.4135
rtibia 82.5352
rfoot -19.7674 12.044
rtoes 4.38547
lfemur -50.0973 18.7237 -21.4161
ltibia 86.5197
lfoot -29.4612 11.3352
ltoes -30.0418
2429
root 1.12047 14.3153 -1.27293 3.32757 -19.2287 -0.0478812
lowerback 25.197 -2.19603 4.96622
upperback 13.6986 -2.02905 0.554647
thorax 1.08772 -0.867364 -1.7441
lowerneck -10.5087 0.672996 2.6154
upperneck 17.957 1.68767 -6.81997
head 7.31184 0.356873 -2.50591
rclavicle 3.89618e-014 -2.38542e-014
rhumerus 17.6637 22.0243 -90.1948
rradius 138.208
rwrist 48.1217
rhand 4.17221 -0.784183
rfingers 7.12502
rthumb 29.5801 -28.4467
lclavicle 3.89618e-014 -2.38542e-014
lhumerus 20.5486 -22.4259 86.6378
lradius 137.218
lwrist -34.1542
lhand 7.07621 36.1723
lfingers 7.12502
lthumb 32.3482 63.3078
rfemur -57.768 -3.09394 18.5342
rtibia 82.5068
rfoot -19.9139 11.8989
rtoes 3.41181
lfemur -50.0356 18.6748 -21.3005
ltibia 86.499
lfoot -29.4837 11.4292
ltoes -30.15
2430
root 1.11305 14.3176 -1.26862 3.40363 -19.1123 -0.103534
lowerback 25.0136 -2.19025 5.03366
upperback 13.7255 -2.01932 0.534193
thorax 1.20337 -0.854313 -1.81163
lowerneck -10.5634 0.66527 2.60189
upperneck 17.8621 1.66527 -6.76528
head 7.28914 0.350992 -2.48648
rclavicle 8.34896e-015 -2.18663e-015
rhumerus 17.7182 22.109 -90.1369
rradius 138.166
rwrist 48.0185
rhand 3.83671 -0.944865
rfingers 7.12502
rthumb 29.2598 -28.6636
lclavicle 8.34896e-015 -2.18663e-015
lhumerus 20.7023 -22.5172 86.5207
lradius 137.243
lwrist -34.0942
lhand 6.94969 36.1778
lfingers 7.12502
lthumb 32.2278 63.3378
rfemur -57.7716 -3.21067 18.6267
rtibia 82.4922
rfoot -19.9072 11.93
rtoes 3.65252
lfemur -50.11 18.6054 -21.2462
ltibia 86.4866
lfoot -29.4295 11.469
ltoes -30.3281
2431
root 1.10468 14.3199 -1.26562 3.41019 -19.0361 -0.144363
lowerback 24.9729 -2.18779 5.01787
upperback 13.7039 -2.01971 0.525484
thorax 1.19778 -0.854844 -1.81268
lowerneck -10.606 0.655589 2.49467
upperneck 17.8721 1.65884 -6.69511
head 7.29863 0.346161 -2.44622
rclavicle -3.57812e-015 1.43125e-014
rhumerus 17.662 22.201 -90.1549
rradius 138.199
rwrist 47.9503
rhand 3.57557 -0.97621
rfingers 7.12502
rthumb 29.0104 -28.7382
lclavicle -3.57812e-015 1.43125e-014
lhumerus 20.7971 -22.4708 86.457
lradius 137.213
lwrist -34.0522
lhand 6.91148 36.1308
lfingers 7.12502
lthumb 32.1914 63.2982
rfemur -57.707 -3.25546 18.6971
rtibia 82.4707
rfoot -19.9278 11.8448
rtoes 3.5763
lfemur -50.0959 18.5716 -21.1705
ltibia 86.4684
lfoot -29.4281 11.3934
ltoes -30.2082
